<svg width="101" height="129" viewBox="0 0 101 129" fill="none" xmlns="http://www.w3.org/2000/svg">
<path d="M99.0261 95.7469C100.324 95.4743 101.148 94.1939 100.859 92.8999L81.0112 3.96814C80.4021 1.23883 77.6729 -0.46031 74.9549 0.197616L1.51488 17.9749C1.3555 18.0135 1.25574 18.1719 1.28977 18.3323L1.34625 18.5986C1.35714 18.6499 1.31801 18.6982 1.26558 18.6982V18.6982C1.22241 18.6982 1.18654 18.7315 1.18333 18.7745L0.0492408 33.9903C0.0165564 34.4288 0.0418626 34.8697 0.124504 35.3016L17.0978 124.006C17.6229 126.75 20.2953 128.532 23.0306 127.961L95.1924 112.894C97.9222 112.325 99.6582 109.632 99.0503 106.91L97.193 98.5943C96.9039 97.3002 97.7284 96.0195 99.0261 95.7469V95.7469Z" fill="#253E41"/>
</svg>
