<svg width="130" height="120" viewBox="0 0 130 120" fill="none" xmlns="http://www.w3.org/2000/svg">
<path d="M129.03 0.631956C128.222 -0.0421307 127.143 -0.176948 126.199 0.227505L3.11098 54.1545C1.08872 54.9634 -0.124638 56.9856 0.0101797 59.2775C0.144997 61.5694 1.49317 63.4569 3.65025 64.2658L39.6465 76.1297V108.486C39.6465 111.452 41.5339 114.013 44.3651 114.822C47.1963 115.766 50.2971 114.687 52.0497 112.261L67.1492 90.4203L99.101 117.923C100.045 118.732 101.258 119.136 102.606 119.136C103.28 119.136 103.82 119.002 104.359 118.867C106.246 118.193 107.594 116.71 107.864 114.822L129.974 3.3283C130.109 2.38458 129.705 1.30604 129.03 0.631956ZM64.4529 84.758L47.6007 109.16C47.0615 109.969 46.3874 109.834 45.9829 109.699C45.7133 109.699 45.0392 109.295 45.0392 108.486V74.2423C45.0392 73.0289 44.3651 72.0852 43.1517 71.6807L5.26806 59.0079L114.74 11.1477L60.8128 55.5026C59.5995 56.4464 59.4647 58.199 60.4084 59.2775C60.9476 59.9516 61.7566 60.2213 62.4306 60.2213C62.9699 60.2213 63.644 60.0864 64.1833 59.5472L110.965 21.1242L64.4529 84.758ZM102.606 113.744L70.25 85.9714L122.02 15.3271L102.606 113.744Z" fill="#273D40"/>
<path d="M53.5332 61.4347L49.2191 64.9399C48.0057 65.8836 47.8709 67.6362 48.8146 68.7148C49.3539 69.3889 50.1628 69.6585 50.9717 69.6585C51.511 69.6585 52.1851 69.5237 52.7243 69.1192L57.0385 65.614C58.2518 64.6703 58.3867 62.9176 57.4429 61.8391C56.4992 60.7606 54.7466 60.6257 53.5332 61.4347Z" fill="#273D40"/>
</svg>
