<svg width="130" height="149" viewBox="0 0 130 149" fill="none" xmlns="http://www.w3.org/2000/svg">
<path d="M54.1265 98.3959L51.1457 78.9207C51.0361 78.19 51.2361 77.4188 51.7592 76.8188C52.7054 75.7342 54.3554 75.6188 55.44 76.565L95.2614 111.254L95.5557 111.559C96.473 112.667 96.3172 114.313 95.2095 115.229L55.3881 148.179C54.8131 148.642 54.0496 148.869 53.2669 148.731C51.8554 148.477 50.915 147.123 51.1688 145.714L54.1381 129.208C50.6803 128.806 46.9092 127.944 43.0284 126.638C32.9014 123.236 21.8821 116.752 13.5435 107.344C5.12232 97.844 -0.581564 85.3804 0.0472866 70.1111C0.272288 64.5495 1.34537 58.6225 3.4377 52.3513C3.69539 51.3359 4.55693 50.534 5.65887 50.4032C7.08965 50.234 8.38773 51.2571 8.55504 52.6859C10.8493 71.9322 18.2724 83.0919 27.4494 89.5708C35.6514 95.3632 45.3707 97.5228 54.1265 98.3959V98.3959Z" fill="#253E41"/>
<path d="M75.8735 50.3752L78.8543 69.8504C78.9639 70.5811 78.7639 71.3523 78.2408 71.9523C77.2946 73.0369 75.6446 73.1523 74.56 72.2061L34.7386 37.5174L34.4443 37.2117C33.527 36.104 33.6828 34.4578 34.7905 33.5424L74.6119 0.592157C75.1869 0.128692 75.9504 -0.0982319 76.7331 0.0402306C78.1446 0.294079 79.085 1.64793 78.8312 3.05756L75.8619 19.5634C79.3196 19.9654 83.0908 20.8269 86.9716 22.1327C97.0986 25.5346 108.118 32.0193 116.456 41.4271C124.878 50.9271 130.582 63.3907 129.953 78.66C129.728 84.2216 128.655 90.1486 126.562 96.4198C126.305 97.4352 125.443 98.2371 124.341 98.3679C122.91 98.5371 121.612 97.514 121.445 96.0852C119.151 76.8389 111.728 65.6792 102.551 59.2003C94.3486 53.4079 84.6293 51.2483 75.8735 50.3752V50.3752Z" fill="#253E41"/>
</svg>
